HIERARCHY
ROOT Hips
{
    OFFSET 0.0 0.0 0.0
    CHANNELS 6 Xposition Yposition Zposition Zrotation Xrotation Yrotation
    JOINT Spine
    {
        OFFSET 0.0 5.0 0.0
        CHANNELS 3 Zrotation Xrotation Yrotation
        JOINT Chest
        {
            OFFSET 0.0 5.0 0.0
            CHANNELS 3 Zrotation Xrotation Yrotation
            JOINT Neck
            {
                OFFSET 0.0 8.0 0.0
                CHANNELS 3 Zrotation Xrotation Yrotation
                JOINT Head
                {
                    OFFSET 0.0 5.0 0.0
                    CHANNELS 3 Zrotation Xrotation Yrotation
                    End Site
                    {
                        OFFSET 0.0 3.0 0.0
                    }
                }
            }
            JOINT LeftShoulder
            {
                OFFSET -5.0 0.0 0.0
                CHANNELS 3 Zrotation Xrotation Yrotation
                JOINT LeftArm
                {
                    OFFSET 0.0 -10.0 0.0
                    CHANNELS 3 Zrotation Xrotation Yrotation
                    JOINT LeftForeArm
                    {
                        OFFSET 0.0 -10.0 0.0
                        CHANNELS 3 Zrotation Xrotation Yrotation
                        End Site
                        {
                            OFFSET 0.0 -3.0 0.0
                        }
                    }
                }
            }
        }
    }
}

MOTION
Frames: 14
Frame Time: 0.033333
970.000000 442.938926 126.117212 0.000000 0.000000 0.000000 0.000000 0.000000 0.000000 29.678605 3.709255 0.000000 180.000000 -1.445766 0.000000 29.744881 6.029752 -0.000000 150.255119 -6.966430 30.000000 19.983107 -1.851595 0.000000 18.000000 -0.315355 0.000000
1354.522934 467.411410 147.029516 0.000000 0.000000 0.000000 0.000000 0.000000 0.000000 150.622570 6.499970 4.973798 -29.377430 1.201728 4.973798 140.176400 5.849283 3.759997 -12.221629 5.520754 29.763441 132.794256 -2.773523 -3.759997 -2.626015 -0.021429 0.313953
969.997807 442.887864 117.643933 0.000000 0.000000 0.000000 0.000000 0.000000 0.000000 31.061399 23.650433 9.635073 180.000000 10.278623 9.635073 30.285790 -7.516322 7.460697 149.714210 10.991751 29.057495 19.151579 -9.806427 -7.460697 18.000000 0.349880 0.626666
1246.736984 514.278152 119.899409 0.000000 0.000000 0.000000 0.000000 0.000000 0.000000 143.557092 -3.411250 13.690942 -36.442908 -13.051306 13.690942 133.761037 1.214916 11.043737 -156.950665 -6.403314 27.893295 0.000000 0.000000 0.000000 1.928484 0.499568 0.936907
1245.221100 458.637464 117.262359 0.000000 0.000000 0.000000 0.000000 0.000000 0.000000 160.701064 -0.842563 16.886559 -19.298936 3.076913 16.886559 140.193827 2.365151 14.452610 -157.554825 -5.319454 26.289200 29.500467 5.017974 -14.452610 -15.049953 -0.501797 1.243449
1257.365570 418.514181 103.969017 0.000000 0.000000 0.000000 0.000000 0.000000 0.000000 -143.710676 -8.540390 19.021130 36.289324 -1.672815 19.021130 163.220413 0.804473 17.633558 11.688054 0.650094 24.270510 152.038385 -0.509070 -17.633558 -2.339948 0.163197 1.545085
1275.099564 408.163741 97.044621 0.000000 0.000000 0.000000 0.000000 0.000000 0.000000 -132.929531 4.767918 19.960535 47.070469 -12.061095 19.960535 173.491912 3.343000 20.536413 -160.709681 -5.267491 21.869059 33.138793 5.427008 -20.536413 -14.686121 -0.542701 1.840623
1290.611115 384.880857 91.813463 0.000000 0.000000 0.000000 0.000000 0.000000 0.000000 -132.705235 0.574530 19.645745 47.294765 6.772768 19.645745 -173.778854 -1.500691 23.115397 20.496835 -5.925523 19.122720 -161.220290 -3.251938 -23.115397 1.723235 0.399808 2.128896
1302.817154 380.305352 91.801259 0.000000 0.000000 0.000000 0.000000 0.000000 0.000000 -131.493915 -2.649818 18.096541 48.506085 -0.586586 18.096541 -165.393697 2.012159 25.329838 23.154815 -2.260711 16.074804 -178.200316 0.437067 -25.329838 0.138141 0.012978 2.408768
1304.997711 379.563582 90.144626 0.000000 0.000000 0.000000 0.000000 0.000000 0.000000 -126.727972 0.228067 15.410265 53.272028 -3.105356 15.410265 -160.219593 2.478784 27.144812 28.448880 1.971257 12.773379 -174.368770 -1.276780 -27.144812 0.079526 0.060415 2.679134
1311.668472 386.890390 93.388766 0.000000 0.000000 0.000000 0.000000 0.000000 0.000000 -122.308728 2.828257 11.755705 57.691272 -2.476998 11.755705 -158.801130 1.065411 28.531695 150.942637 2.772845 9.270510 -154.878332 -4.658726 -28.531695 2.695409 0.565083 2.938926
1305.131836 395.180186 83.162532 0.000000 0.000000 0.000000 0.000000 0.000000 0.000000 -125.112810 9.535442 7.362491 54.887190 -9.524655 7.362491 -146.487292 3.565012 29.468618 -175.167369 1.263812 5.621439 -159.224034 -4.349072 -29.468618 1.782042 0.463147 3.187120
1296.320457 392.734526 87.488541 0.000000 0.000000 0.000000 0.000000 0.000000 0.000000 -131.035750 0.983987 2.506665 48.964250 -12.153642 2.506665 -128.969563 -1.662051 29.940802 38.856147 -5.976707 1.883716 -134.776850 1.404062 -29.940802 3.458429 0.138298 3.422736
1306.963577 386.612041 58.574082 0.000000 0.000000 0.000000 0.000000 0.000000 0.000000 -124.469622 15.399721 -2.506665 55.530378 -4.137739 -2.506665 -109.994856 -6.802284 29.940802 37.691309 -4.141539 -1.883716 -118.274788 -0.315421 -29.940802 5.098336 -0.048751 3.644843
